<mxfile host="app.diagrams.net" agent="Mozilla/5.0 (Windows NT 10.0; Win64; x64) AppleWebKit/537.36 (KHTML, like Gecko) Chrome/131.0.0.0 Safari/537.36" version="25.0.3">
  <diagram name="Page-1" id="c578QJLnvCJ7ROiWt_WT">
    <mxGraphModel dx="-1887" dy="16" grid="0" gridSize="10" guides="1" tooltips="1" connect="1" arrows="1" fold="1" page="0" pageScale="1" pageWidth="827" pageHeight="1169" math="0" shadow="0">
      <root>
        <mxCell id="0" />
        <mxCell id="1" parent="0" />
        <mxCell id="BfH7uIpekhjpMc50vlzP-95" value="" style="rounded=0;html=1;jettySize=auto;orthogonalLoop=1;fontSize=11;endArrow=block;endFill=0;endSize=8;strokeWidth=1;shadow=0;labelBackgroundColor=none;edgeStyle=orthogonalEdgeStyle;entryX=0.5;entryY=0;entryDx=0;entryDy=0;" parent="1" source="BfH7uIpekhjpMc50vlzP-96" target="BfH7uIpekhjpMc50vlzP-102" edge="1">
          <mxGeometry relative="1" as="geometry">
            <mxPoint x="4355.996666666668" y="1182.0033740234376" as="targetPoint" />
          </mxGeometry>
        </mxCell>
        <mxCell id="BfH7uIpekhjpMc50vlzP-96" value="Start" style="rounded=1;whiteSpace=wrap;html=1;fontSize=12;glass=0;strokeWidth=1;shadow=0;" parent="1" vertex="1">
          <mxGeometry x="4295.996666666668" y="1012.0033740234375" width="120" height="40" as="geometry" />
        </mxCell>
        <mxCell id="BfH7uIpekhjpMc50vlzP-101" value="" style="rounded=0;html=1;jettySize=auto;orthogonalLoop=1;fontSize=11;endArrow=block;endFill=0;endSize=8;strokeWidth=1;shadow=0;labelBackgroundColor=none;edgeStyle=orthogonalEdgeStyle;exitX=0.5;exitY=1;exitDx=0;exitDy=0;entryX=0.5;entryY=0;entryDx=0;entryDy=0;" parent="1" source="BfH7uIpekhjpMc50vlzP-105" target="BfH7uIpekhjpMc50vlzP-130" edge="1">
          <mxGeometry x="0.3333" y="20" relative="1" as="geometry">
            <mxPoint as="offset" />
            <mxPoint x="4309.996666666668" y="1822.0033740234376" as="sourcePoint" />
            <mxPoint x="4449.996666666668" y="2052.0033740234376" as="targetPoint" />
            <Array as="points" />
          </mxGeometry>
        </mxCell>
        <mxCell id="BfH7uIpekhjpMc50vlzP-141" style="edgeStyle=orthogonalEdgeStyle;rounded=0;orthogonalLoop=1;jettySize=auto;html=1;entryX=0.5;entryY=0;entryDx=0;entryDy=0;fontSize=12;startSize=8;endSize=8;" parent="1" source="BfH7uIpekhjpMc50vlzP-102" target="BfH7uIpekhjpMc50vlzP-139" edge="1">
          <mxGeometry relative="1" as="geometry" />
        </mxCell>
        <mxCell id="BfH7uIpekhjpMc50vlzP-102" value="Login" style="rounded=1;whiteSpace=wrap;html=1;" parent="1" vertex="1">
          <mxGeometry x="4296.666666666668" y="1165.0033740234376" width="120" height="60" as="geometry" />
        </mxCell>
        <mxCell id="BfH7uIpekhjpMc50vlzP-103" style="edgeStyle=orthogonalEdgeStyle;rounded=0;orthogonalLoop=1;jettySize=auto;html=1;entryX=0.5;entryY=0;entryDx=0;entryDy=0;fontSize=12;startSize=8;endSize=8;endArrow=block;endFill=0;" parent="1" source="BfH7uIpekhjpMc50vlzP-105" target="BfH7uIpekhjpMc50vlzP-132" edge="1">
          <mxGeometry relative="1" as="geometry" />
        </mxCell>
        <mxCell id="BfH7uIpekhjpMc50vlzP-104" style="edgeStyle=orthogonalEdgeStyle;rounded=0;orthogonalLoop=1;jettySize=auto;html=1;entryX=1;entryY=0.5;entryDx=0;entryDy=0;fontSize=12;startSize=8;endSize=8;exitX=1;exitY=0.75;exitDx=0;exitDy=0;endArrow=block;endFill=0;" parent="1" source="BfH7uIpekhjpMc50vlzP-105" target="BfH7uIpekhjpMc50vlzP-116" edge="1">
          <mxGeometry relative="1" as="geometry">
            <Array as="points">
              <mxPoint x="4359" y="2020" />
              <mxPoint x="4520" y="2020" />
              <mxPoint x="4520" y="2332" />
            </Array>
          </mxGeometry>
        </mxCell>
        <mxCell id="BfH7uIpekhjpMc50vlzP-105" value="masukan makanan" style="shape=parallelogram;perimeter=parallelogramPerimeter;whiteSpace=wrap;html=1;fixedSize=1;" parent="1" vertex="1">
          <mxGeometry x="4247.996666666668" y="1978.0033740234376" width="120" height="60" as="geometry" />
        </mxCell>
        <mxCell id="BfH7uIpekhjpMc50vlzP-107" style="edgeStyle=none;curved=1;rounded=0;orthogonalLoop=1;jettySize=auto;html=1;entryX=1;entryY=0.5;entryDx=0;entryDy=0;fontSize=12;startSize=8;endSize=8;exitX=0;exitY=0.5;exitDx=0;exitDy=0;" parent="1" source="Abavzd4_NOO6L6tr1U0k-6" target="BfH7uIpekhjpMc50vlzP-133" edge="1">
          <mxGeometry relative="1" as="geometry">
            <mxPoint x="5017.996666666668" y="2327.0033740234376" as="sourcePoint" />
          </mxGeometry>
        </mxCell>
        <mxCell id="Abavzd4_NOO6L6tr1U0k-7" value="no" style="edgeLabel;html=1;align=center;verticalAlign=middle;resizable=0;points=[];fontSize=12;" vertex="1" connectable="0" parent="BfH7uIpekhjpMc50vlzP-107">
          <mxGeometry x="-0.0158" y="1" relative="1" as="geometry">
            <mxPoint as="offset" />
          </mxGeometry>
        </mxCell>
        <mxCell id="BfH7uIpekhjpMc50vlzP-110" value="End" style="rounded=1;whiteSpace=wrap;html=1;fontSize=12;glass=0;strokeWidth=1;shadow=0;" parent="1" vertex="1">
          <mxGeometry x="5197.996666666668" y="2447.0033740234376" width="120" height="40" as="geometry" />
        </mxCell>
        <mxCell id="BfH7uIpekhjpMc50vlzP-114" style="edgeStyle=none;curved=1;rounded=0;orthogonalLoop=1;jettySize=auto;html=1;fontSize=12;startSize=8;endSize=8;entryX=0;entryY=0.5;entryDx=0;entryDy=0;exitX=1;exitY=0.5;exitDx=0;exitDy=0;endArrow=block;endFill=0;" parent="1" source="BfH7uIpekhjpMc50vlzP-122" target="Abavzd4_NOO6L6tr1U0k-1" edge="1">
          <mxGeometry relative="1" as="geometry">
            <mxPoint x="4581.996666666668" y="2442.0033740234376" as="targetPoint" />
          </mxGeometry>
        </mxCell>
        <mxCell id="BfH7uIpekhjpMc50vlzP-115" style="edgeStyle=none;curved=1;rounded=0;orthogonalLoop=1;jettySize=auto;html=1;fontSize=12;startSize=8;endSize=8;entryX=0.5;entryY=0;entryDx=0;entryDy=0;endArrow=block;endFill=0;" parent="1" source="BfH7uIpekhjpMc50vlzP-116" target="BfH7uIpekhjpMc50vlzP-121" edge="1">
          <mxGeometry relative="1" as="geometry">
            <mxPoint x="4467.996666666668" y="2372.0033740234376" as="targetPoint" />
          </mxGeometry>
        </mxCell>
        <mxCell id="BfH7uIpekhjpMc50vlzP-116" value="Opsi Makanan" style="shape=parallelogram;perimeter=parallelogramPerimeter;whiteSpace=wrap;html=1;fixedSize=1;" parent="1" vertex="1">
          <mxGeometry x="4247.996666666668" y="2302.0033740234376" width="120" height="60" as="geometry" />
        </mxCell>
        <mxCell id="BfH7uIpekhjpMc50vlzP-117" style="edgeStyle=none;curved=1;rounded=0;orthogonalLoop=1;jettySize=auto;html=1;fontSize=12;startSize=8;endSize=8;entryX=0;entryY=0.5;entryDx=0;entryDy=0;endArrow=block;endFill=0;exitX=0.951;exitY=0.408;exitDx=0;exitDy=0;exitPerimeter=0;" parent="1" source="Abavzd4_NOO6L6tr1U0k-1" target="BfH7uIpekhjpMc50vlzP-125" edge="1">
          <mxGeometry relative="1" as="geometry">
            <mxPoint x="4657.996666666668" y="2182.0033740234376" as="targetPoint" />
            <mxPoint x="4701.996666666668" y="2432.9672294451243" as="sourcePoint" />
          </mxGeometry>
        </mxCell>
        <mxCell id="BfH7uIpekhjpMc50vlzP-118" style="edgeStyle=none;curved=1;rounded=0;orthogonalLoop=1;jettySize=auto;html=1;fontSize=12;startSize=8;endSize=8;entryX=-0.017;entryY=0.627;entryDx=0;entryDy=0;entryPerimeter=0;endArrow=block;endFill=0;exitX=0.934;exitY=0.608;exitDx=0;exitDy=0;exitPerimeter=0;" parent="1" source="Abavzd4_NOO6L6tr1U0k-1" target="BfH7uIpekhjpMc50vlzP-123" edge="1">
          <mxGeometry relative="1" as="geometry">
            <mxPoint x="4657.996666666668" y="2282.0033740234376" as="targetPoint" />
            <mxPoint x="4701.996666666668" y="2459.4295755360013" as="sourcePoint" />
          </mxGeometry>
        </mxCell>
        <mxCell id="BfH7uIpekhjpMc50vlzP-120" style="edgeStyle=none;curved=1;rounded=0;orthogonalLoop=1;jettySize=auto;html=1;fontSize=12;startSize=8;endSize=8;entryX=0;entryY=0.5;entryDx=0;entryDy=0;endArrow=block;endFill=0;" parent="1" source="BfH7uIpekhjpMc50vlzP-121" target="BfH7uIpekhjpMc50vlzP-122" edge="1">
          <mxGeometry relative="1" as="geometry">
            <mxPoint x="4647.996666666668" y="2342.0033740234376" as="targetPoint" />
          </mxGeometry>
        </mxCell>
        <mxCell id="BfH7uIpekhjpMc50vlzP-121" value="Keranjang" style="rounded=1;whiteSpace=wrap;html=1;" parent="1" vertex="1">
          <mxGeometry x="4247.996666666668" y="2412.0033740234376" width="120" height="60" as="geometry" />
        </mxCell>
        <mxCell id="BfH7uIpekhjpMc50vlzP-122" value="Tambahan" style="rounded=1;whiteSpace=wrap;html=1;" parent="1" vertex="1">
          <mxGeometry x="4407.996666666668" y="2412.0033740234376" width="120" height="60" as="geometry" />
        </mxCell>
        <mxCell id="BfH7uIpekhjpMc50vlzP-123" value="Harga Tetap" style="rounded=1;whiteSpace=wrap;html=1;" parent="1" vertex="1">
          <mxGeometry x="4807.996666666668" y="2452.0033740234376" width="120" height="60" as="geometry" />
        </mxCell>
        <mxCell id="BfH7uIpekhjpMc50vlzP-124" style="edgeStyle=none;curved=1;rounded=0;orthogonalLoop=1;jettySize=auto;html=1;fontSize=12;startSize=8;endSize=8;entryX=0;entryY=0.25;entryDx=0;entryDy=0;endArrow=block;endFill=0;" parent="1" source="BfH7uIpekhjpMc50vlzP-125" target="Abavzd4_NOO6L6tr1U0k-2" edge="1">
          <mxGeometry relative="1" as="geometry">
            <mxPoint x="5027.996666666668" y="2432.0033740234376" as="targetPoint" />
          </mxGeometry>
        </mxCell>
        <mxCell id="BfH7uIpekhjpMc50vlzP-125" value="Harga Berkurang" style="rounded=1;whiteSpace=wrap;html=1;" parent="1" vertex="1">
          <mxGeometry x="4807.996666666668" y="2387.0033740234376" width="120" height="60" as="geometry" />
        </mxCell>
        <mxCell id="BfH7uIpekhjpMc50vlzP-126" style="edgeStyle=none;curved=1;rounded=0;orthogonalLoop=1;jettySize=auto;html=1;entryX=0.5;entryY=1;entryDx=0;entryDy=0;fontSize=12;startSize=8;endSize=8;endArrow=block;endFill=0;exitX=0.367;exitY=0.054;exitDx=0;exitDy=0;exitPerimeter=0;" parent="1" source="Abavzd4_NOO6L6tr1U0k-2" edge="1">
          <mxGeometry relative="1" as="geometry">
            <mxPoint x="5067.996666666668" y="2392.0033740234376" as="sourcePoint" />
            <mxPoint x="5067.996666666668" y="2357.0033740234376" as="targetPoint" />
          </mxGeometry>
        </mxCell>
        <mxCell id="BfH7uIpekhjpMc50vlzP-128" style="edgeStyle=none;curved=1;rounded=0;orthogonalLoop=1;jettySize=auto;html=1;entryX=0;entryY=0.75;entryDx=0;entryDy=0;fontSize=12;startSize=8;endSize=8;endArrow=block;endFill=0;" parent="1" source="BfH7uIpekhjpMc50vlzP-123" target="Abavzd4_NOO6L6tr1U0k-2" edge="1">
          <mxGeometry relative="1" as="geometry">
            <mxPoint x="5028.556666666667" y="2442.5633740234375" as="targetPoint" />
          </mxGeometry>
        </mxCell>
        <mxCell id="BfH7uIpekhjpMc50vlzP-233" style="edgeStyle=orthogonalEdgeStyle;rounded=0;orthogonalLoop=1;jettySize=auto;html=1;entryX=0;entryY=0.5;entryDx=0;entryDy=0;fontSize=12;startSize=8;endSize=8;" parent="1" source="BfH7uIpekhjpMc50vlzP-130" target="BfH7uIpekhjpMc50vlzP-158" edge="1">
          <mxGeometry relative="1" as="geometry">
            <Array as="points">
              <mxPoint x="4203" y="1860" />
            </Array>
          </mxGeometry>
        </mxCell>
        <mxCell id="BfH7uIpekhjpMc50vlzP-130" value="simpan keranjang" style="rounded=1;whiteSpace=wrap;html=1;" parent="1" vertex="1">
          <mxGeometry x="4197.996666666668" y="2157.0033740234376" width="120" height="60" as="geometry" />
        </mxCell>
        <mxCell id="BfH7uIpekhjpMc50vlzP-132" value="beli sekarang" style="rounded=1;whiteSpace=wrap;html=1;" parent="1" vertex="1">
          <mxGeometry x="4337.996666666668" y="2157.0033740234376" width="120" height="60" as="geometry" />
        </mxCell>
        <mxCell id="Abavzd4_NOO6L6tr1U0k-10" style="edgeStyle=none;curved=1;rounded=0;orthogonalLoop=1;jettySize=auto;html=1;entryX=1;entryY=0;entryDx=0;entryDy=0;fontSize=12;startSize=8;endSize=8;" edge="1" parent="1" source="BfH7uIpekhjpMc50vlzP-133" target="BfH7uIpekhjpMc50vlzP-121">
          <mxGeometry relative="1" as="geometry" />
        </mxCell>
        <mxCell id="BfH7uIpekhjpMc50vlzP-133" value="Makanan Dibatalkan" style="rounded=1;whiteSpace=wrap;html=1;" parent="1" vertex="1">
          <mxGeometry x="4810.996666666668" y="2287.0033740234376" width="120" height="60" as="geometry" />
        </mxCell>
        <mxCell id="BfH7uIpekhjpMc50vlzP-161" style="edgeStyle=orthogonalEdgeStyle;rounded=0;orthogonalLoop=1;jettySize=auto;html=1;entryX=1;entryY=0.5;entryDx=0;entryDy=0;fontSize=12;startSize=8;endSize=8;" parent="1" source="BfH7uIpekhjpMc50vlzP-139" target="BfH7uIpekhjpMc50vlzP-102" edge="1">
          <mxGeometry relative="1" as="geometry">
            <Array as="points">
              <mxPoint x="4455" y="1362" />
              <mxPoint x="4455" y="1195" />
            </Array>
          </mxGeometry>
        </mxCell>
        <mxCell id="BfH7uIpekhjpMc50vlzP-174" value="tidak" style="edgeLabel;html=1;align=center;verticalAlign=middle;resizable=0;points=[];fontSize=12;" parent="BfH7uIpekhjpMc50vlzP-161" vertex="1" connectable="0">
          <mxGeometry x="-0.1819" y="-1" relative="1" as="geometry">
            <mxPoint as="offset" />
          </mxGeometry>
        </mxCell>
        <mxCell id="BfH7uIpekhjpMc50vlzP-139" value="daftar" style="rhombus;whiteSpace=wrap;html=1;" parent="1" vertex="1">
          <mxGeometry x="4346" y="1322" width="80" height="80" as="geometry" />
        </mxCell>
        <mxCell id="BfH7uIpekhjpMc50vlzP-151" style="edgeStyle=orthogonalEdgeStyle;rounded=0;orthogonalLoop=1;jettySize=auto;html=1;entryX=0.5;entryY=1;entryDx=0;entryDy=0;fontSize=12;startSize=8;endSize=8;" parent="1" source="BfH7uIpekhjpMc50vlzP-147" target="BfH7uIpekhjpMc50vlzP-150" edge="1">
          <mxGeometry relative="1" as="geometry">
            <Array as="points">
              <mxPoint x="4835" y="1627" />
            </Array>
          </mxGeometry>
        </mxCell>
        <mxCell id="BfH7uIpekhjpMc50vlzP-162" style="edgeStyle=none;curved=1;rounded=0;orthogonalLoop=1;jettySize=auto;html=1;entryX=0.555;entryY=0.083;entryDx=0;entryDy=0;fontSize=12;startSize=8;endSize=8;entryPerimeter=0;" parent="1" source="BfH7uIpekhjpMc50vlzP-147" target="BfH7uIpekhjpMc50vlzP-158" edge="1">
          <mxGeometry relative="1" as="geometry" />
        </mxCell>
        <mxCell id="BfH7uIpekhjpMc50vlzP-164" style="edgeStyle=none;curved=1;rounded=0;orthogonalLoop=1;jettySize=auto;html=1;entryX=1;entryY=0.5;entryDx=0;entryDy=0;fontSize=12;startSize=8;endSize=8;" parent="1" source="BfH7uIpekhjpMc50vlzP-147" target="BfH7uIpekhjpMc50vlzP-163" edge="1">
          <mxGeometry relative="1" as="geometry" />
        </mxCell>
        <mxCell id="BfH7uIpekhjpMc50vlzP-183" style="edgeStyle=orthogonalEdgeStyle;rounded=0;orthogonalLoop=1;jettySize=auto;html=1;entryX=0;entryY=1;entryDx=0;entryDy=0;fontSize=12;startSize=8;endSize=8;" parent="1" source="BfH7uIpekhjpMc50vlzP-147" target="BfH7uIpekhjpMc50vlzP-175" edge="1">
          <mxGeometry relative="1" as="geometry">
            <Array as="points">
              <mxPoint x="4645" y="1567" />
              <mxPoint x="4645" y="1502" />
            </Array>
          </mxGeometry>
        </mxCell>
        <mxCell id="BfH7uIpekhjpMc50vlzP-186" style="edgeStyle=none;curved=1;rounded=0;orthogonalLoop=1;jettySize=auto;html=1;entryX=1;entryY=1;entryDx=0;entryDy=0;fontSize=12;startSize=8;endSize=8;" parent="1" source="BfH7uIpekhjpMc50vlzP-147" target="BfH7uIpekhjpMc50vlzP-185" edge="1">
          <mxGeometry relative="1" as="geometry">
            <Array as="points">
              <mxPoint x="4081" y="1514" />
            </Array>
          </mxGeometry>
        </mxCell>
        <mxCell id="BfH7uIpekhjpMc50vlzP-197" style="edgeStyle=orthogonalEdgeStyle;rounded=0;orthogonalLoop=1;jettySize=auto;html=1;entryX=1;entryY=0.5;entryDx=0;entryDy=0;fontSize=12;startSize=8;endSize=8;" parent="1" source="BfH7uIpekhjpMc50vlzP-147" target="BfH7uIpekhjpMc50vlzP-196" edge="1">
          <mxGeometry relative="1" as="geometry">
            <Array as="points">
              <mxPoint x="4219" y="1330" />
            </Array>
          </mxGeometry>
        </mxCell>
        <mxCell id="BfH7uIpekhjpMc50vlzP-201" style="edgeStyle=orthogonalEdgeStyle;rounded=0;orthogonalLoop=1;jettySize=auto;html=1;fontSize=12;startSize=8;endSize=8;entryX=0.04;entryY=0.499;entryDx=0;entryDy=0;entryPerimeter=0;" parent="1" source="BfH7uIpekhjpMc50vlzP-147" target="BfH7uIpekhjpMc50vlzP-199" edge="1">
          <mxGeometry relative="1" as="geometry">
            <mxPoint x="4677" y="1408" as="targetPoint" />
            <Array as="points">
              <mxPoint x="4464" y="1378" />
            </Array>
          </mxGeometry>
        </mxCell>
        <mxCell id="BfH7uIpekhjpMc50vlzP-147" value="beranda" style="rounded=1;whiteSpace=wrap;html=1;fontSize=38;" parent="1" vertex="1">
          <mxGeometry x="4195" y="1502" width="311" height="129" as="geometry" />
        </mxCell>
        <mxCell id="BfH7uIpekhjpMc50vlzP-153" style="edgeStyle=none;curved=1;rounded=0;orthogonalLoop=1;jettySize=auto;html=1;fontSize=12;startSize=8;endSize=8;" parent="1" source="BfH7uIpekhjpMc50vlzP-150" target="BfH7uIpekhjpMc50vlzP-152" edge="1">
          <mxGeometry relative="1" as="geometry" />
        </mxCell>
        <mxCell id="BfH7uIpekhjpMc50vlzP-150" value="telusuri" style="rounded=1;whiteSpace=wrap;html=1;" parent="1" vertex="1">
          <mxGeometry x="4775" y="1547" width="120" height="60" as="geometry" />
        </mxCell>
        <mxCell id="BfH7uIpekhjpMc50vlzP-155" style="edgeStyle=none;curved=1;rounded=0;orthogonalLoop=1;jettySize=auto;html=1;entryX=0;entryY=0.5;entryDx=0;entryDy=0;fontSize=12;startSize=8;endSize=8;" parent="1" source="BfH7uIpekhjpMc50vlzP-152" target="BfH7uIpekhjpMc50vlzP-154" edge="1">
          <mxGeometry relative="1" as="geometry" />
        </mxCell>
        <mxCell id="BfH7uIpekhjpMc50vlzP-152" value="masukan nama makanan" style="shape=parallelogram;perimeter=parallelogramPerimeter;whiteSpace=wrap;html=1;fixedSize=1;" parent="1" vertex="1">
          <mxGeometry x="4981" y="1547" width="120" height="60" as="geometry" />
        </mxCell>
        <mxCell id="BfH7uIpekhjpMc50vlzP-159" style="edgeStyle=orthogonalEdgeStyle;rounded=0;orthogonalLoop=1;jettySize=auto;html=1;entryX=0.785;entryY=0.028;entryDx=0;entryDy=0;fontSize=12;startSize=8;endSize=8;entryPerimeter=0;" parent="1" source="BfH7uIpekhjpMc50vlzP-154" target="BfH7uIpekhjpMc50vlzP-158" edge="1">
          <mxGeometry relative="1" as="geometry">
            <Array as="points">
              <mxPoint x="4939" y="1644" />
              <mxPoint x="4391" y="1644" />
            </Array>
          </mxGeometry>
        </mxCell>
        <mxCell id="BfH7uIpekhjpMc50vlzP-154" value="proses penelusuran" style="rhombus;whiteSpace=wrap;html=1;" parent="1" vertex="1">
          <mxGeometry x="5199" y="1537" width="75" height="80" as="geometry" />
        </mxCell>
        <mxCell id="BfH7uIpekhjpMc50vlzP-156" style="edgeStyle=orthogonalEdgeStyle;rounded=0;orthogonalLoop=1;jettySize=auto;html=1;entryX=0.555;entryY=-0.035;entryDx=0;entryDy=0;entryPerimeter=0;fontSize=12;startSize=8;endSize=8;" parent="1" source="BfH7uIpekhjpMc50vlzP-154" target="BfH7uIpekhjpMc50vlzP-152" edge="1">
          <mxGeometry relative="1" as="geometry">
            <Array as="points">
              <mxPoint x="5237" y="1521" />
              <mxPoint x="5048" y="1521" />
            </Array>
          </mxGeometry>
        </mxCell>
        <mxCell id="BfH7uIpekhjpMc50vlzP-157" value="tidak" style="edgeLabel;html=1;align=center;verticalAlign=middle;resizable=0;points=[];fontSize=12;" parent="BfH7uIpekhjpMc50vlzP-156" vertex="1" connectable="0">
          <mxGeometry x="-0.2943" y="-1" relative="1" as="geometry">
            <mxPoint as="offset" />
          </mxGeometry>
        </mxCell>
        <mxCell id="BfH7uIpekhjpMc50vlzP-158" value="halaman menu makanan" style="rounded=1;whiteSpace=wrap;html=1;" parent="1" vertex="1">
          <mxGeometry x="4284" y="1830" width="120" height="60" as="geometry" />
        </mxCell>
        <mxCell id="BfH7uIpekhjpMc50vlzP-160" style="edgeStyle=orthogonalEdgeStyle;rounded=0;orthogonalLoop=1;jettySize=auto;html=1;entryX=0.667;entryY=0.038;entryDx=0;entryDy=0;entryPerimeter=0;fontSize=12;startSize=8;endSize=8;" parent="1" source="BfH7uIpekhjpMc50vlzP-158" target="BfH7uIpekhjpMc50vlzP-105" edge="1">
          <mxGeometry relative="1" as="geometry">
            <Array as="points">
              <mxPoint x="4340" y="1834" />
              <mxPoint x="4340" y="1834" />
            </Array>
          </mxGeometry>
        </mxCell>
        <mxCell id="BfH7uIpekhjpMc50vlzP-163" value="pilih kategori" style="rounded=1;whiteSpace=wrap;html=1;" parent="1" vertex="1">
          <mxGeometry x="3857" y="1564" width="120" height="60" as="geometry" />
        </mxCell>
        <mxCell id="BfH7uIpekhjpMc50vlzP-167" style="edgeStyle=none;curved=1;rounded=0;orthogonalLoop=1;jettySize=auto;html=1;entryX=1;entryY=0.5;entryDx=0;entryDy=0;fontSize=12;startSize=8;endSize=8;" parent="1" source="BfH7uIpekhjpMc50vlzP-165" target="BfH7uIpekhjpMc50vlzP-166" edge="1">
          <mxGeometry relative="1" as="geometry" />
        </mxCell>
        <mxCell id="BfH7uIpekhjpMc50vlzP-165" value="masukan kategori" style="shape=parallelogram;perimeter=parallelogramPerimeter;whiteSpace=wrap;html=1;fixedSize=1;" parent="1" vertex="1">
          <mxGeometry x="3645" y="1564" width="120" height="60" as="geometry" />
        </mxCell>
        <mxCell id="BfH7uIpekhjpMc50vlzP-166" value="proses pemilahan" style="rhombus;whiteSpace=wrap;html=1;" parent="1" vertex="1">
          <mxGeometry x="3477" y="1554" width="80" height="80" as="geometry" />
        </mxCell>
        <mxCell id="BfH7uIpekhjpMc50vlzP-168" style="edgeStyle=none;curved=1;rounded=0;orthogonalLoop=1;jettySize=auto;html=1;entryX=0.947;entryY=0.518;entryDx=0;entryDy=0;entryPerimeter=0;fontSize=12;startSize=8;endSize=8;" parent="1" source="BfH7uIpekhjpMc50vlzP-163" target="BfH7uIpekhjpMc50vlzP-165" edge="1">
          <mxGeometry relative="1" as="geometry" />
        </mxCell>
        <mxCell id="BfH7uIpekhjpMc50vlzP-169" style="edgeStyle=orthogonalEdgeStyle;rounded=0;orthogonalLoop=1;jettySize=auto;html=1;entryX=0.313;entryY=0.015;entryDx=0;entryDy=0;entryPerimeter=0;fontSize=12;startSize=8;endSize=8;" parent="1" source="BfH7uIpekhjpMc50vlzP-166" target="BfH7uIpekhjpMc50vlzP-158" edge="1">
          <mxGeometry relative="1" as="geometry">
            <Array as="points">
              <mxPoint x="3738" y="1646" />
              <mxPoint x="4335" y="1646" />
            </Array>
          </mxGeometry>
        </mxCell>
        <mxCell id="BfH7uIpekhjpMc50vlzP-172" value="iya" style="edgeLabel;html=1;align=center;verticalAlign=middle;resizable=0;points=[];fontSize=12;" parent="BfH7uIpekhjpMc50vlzP-169" vertex="1" connectable="0">
          <mxGeometry x="-0.848" relative="1" as="geometry">
            <mxPoint as="offset" />
          </mxGeometry>
        </mxCell>
        <mxCell id="BfH7uIpekhjpMc50vlzP-170" style="edgeStyle=orthogonalEdgeStyle;rounded=0;orthogonalLoop=1;jettySize=auto;html=1;entryX=0.636;entryY=-0.025;entryDx=0;entryDy=0;entryPerimeter=0;fontSize=12;startSize=8;endSize=8;" parent="1" source="BfH7uIpekhjpMc50vlzP-166" target="BfH7uIpekhjpMc50vlzP-165" edge="1">
          <mxGeometry relative="1" as="geometry">
            <Array as="points">
              <mxPoint x="3517" y="1516" />
              <mxPoint x="3721" y="1516" />
            </Array>
          </mxGeometry>
        </mxCell>
        <mxCell id="BfH7uIpekhjpMc50vlzP-171" value="tidak" style="edgeLabel;html=1;align=center;verticalAlign=middle;resizable=0;points=[];fontSize=12;" parent="BfH7uIpekhjpMc50vlzP-170" vertex="1" connectable="0">
          <mxGeometry x="-0.2098" relative="1" as="geometry">
            <mxPoint as="offset" />
          </mxGeometry>
        </mxCell>
        <mxCell id="BfH7uIpekhjpMc50vlzP-180" style="edgeStyle=none;curved=1;rounded=0;orthogonalLoop=1;jettySize=auto;html=1;entryX=0;entryY=0.5;entryDx=0;entryDy=0;fontSize=12;startSize=8;endSize=8;" parent="1" source="BfH7uIpekhjpMc50vlzP-175" target="BfH7uIpekhjpMc50vlzP-178" edge="1">
          <mxGeometry relative="1" as="geometry" />
        </mxCell>
        <mxCell id="BfH7uIpekhjpMc50vlzP-175" value="keranjang" style="rounded=1;whiteSpace=wrap;html=1;" parent="1" vertex="1">
          <mxGeometry x="4775" y="1442" width="120" height="60" as="geometry" />
        </mxCell>
        <mxCell id="BfH7uIpekhjpMc50vlzP-176" style="edgeStyle=orthogonalEdgeStyle;rounded=0;orthogonalLoop=1;jettySize=auto;html=1;entryX=0.321;entryY=0.014;entryDx=0;entryDy=0;entryPerimeter=0;fontSize=12;startSize=8;endSize=8;" parent="1" source="BfH7uIpekhjpMc50vlzP-102" target="BfH7uIpekhjpMc50vlzP-147" edge="1">
          <mxGeometry relative="1" as="geometry">
            <Array as="points">
              <mxPoint x="4336" y="1391" />
            </Array>
          </mxGeometry>
        </mxCell>
        <mxCell id="BfH7uIpekhjpMc50vlzP-182" style="edgeStyle=none;curved=1;rounded=0;orthogonalLoop=1;jettySize=auto;html=1;entryX=0;entryY=0.5;entryDx=0;entryDy=0;fontSize=12;startSize=8;endSize=8;" parent="1" source="BfH7uIpekhjpMc50vlzP-178" target="BfH7uIpekhjpMc50vlzP-179" edge="1">
          <mxGeometry relative="1" as="geometry" />
        </mxCell>
        <mxCell id="BfH7uIpekhjpMc50vlzP-178" value="input produk" style="shape=parallelogram;perimeter=parallelogramPerimeter;whiteSpace=wrap;html=1;fixedSize=1;" parent="1" vertex="1">
          <mxGeometry x="4969" y="1442" width="120" height="60" as="geometry" />
        </mxCell>
        <mxCell id="BfH7uIpekhjpMc50vlzP-184" style="edgeStyle=orthogonalEdgeStyle;rounded=0;orthogonalLoop=1;jettySize=auto;html=1;entryX=0.902;entryY=-0.035;entryDx=0;entryDy=0;fontSize=12;startSize=8;endSize=8;exitX=1;exitY=0.5;exitDx=0;exitDy=0;entryPerimeter=0;" parent="1" source="BfH7uIpekhjpMc50vlzP-179" target="BfH7uIpekhjpMc50vlzP-105" edge="1">
          <mxGeometry relative="1" as="geometry">
            <Array as="points">
              <mxPoint x="5297" y="1472" />
              <mxPoint x="5297" y="1930" />
              <mxPoint x="4356" y="1930" />
            </Array>
          </mxGeometry>
        </mxCell>
        <mxCell id="BfH7uIpekhjpMc50vlzP-179" value="proses" style="rhombus;whiteSpace=wrap;html=1;" parent="1" vertex="1">
          <mxGeometry x="5180" y="1432" width="96.5" height="80" as="geometry" />
        </mxCell>
        <mxCell id="BfH7uIpekhjpMc50vlzP-190" style="edgeStyle=none;curved=1;rounded=0;orthogonalLoop=1;jettySize=auto;html=1;entryX=1;entryY=0.5;entryDx=0;entryDy=0;fontSize=12;startSize=8;endSize=8;" parent="1" source="BfH7uIpekhjpMc50vlzP-185" target="BfH7uIpekhjpMc50vlzP-189" edge="1">
          <mxGeometry relative="1" as="geometry" />
        </mxCell>
        <mxCell id="BfH7uIpekhjpMc50vlzP-185" value="pengaturan" style="rounded=1;whiteSpace=wrap;html=1;" parent="1" vertex="1">
          <mxGeometry x="3857" y="1432" width="120" height="60" as="geometry" />
        </mxCell>
        <mxCell id="BfH7uIpekhjpMc50vlzP-188" value="riwayat" style="shape=document;whiteSpace=wrap;html=1;boundedLbl=1;" parent="1" vertex="1">
          <mxGeometry x="3422" y="1422" width="120" height="80" as="geometry" />
        </mxCell>
        <mxCell id="BfH7uIpekhjpMc50vlzP-192" value="" style="edgeStyle=none;curved=1;rounded=0;orthogonalLoop=1;jettySize=auto;html=1;fontSize=12;startSize=8;endSize=8;" parent="1" source="BfH7uIpekhjpMc50vlzP-189" target="BfH7uIpekhjpMc50vlzP-188" edge="1">
          <mxGeometry relative="1" as="geometry" />
        </mxCell>
        <mxCell id="BfH7uIpekhjpMc50vlzP-189" value="riwayat transaksi" style="rounded=1;whiteSpace=wrap;html=1;" parent="1" vertex="1">
          <mxGeometry x="3627" y="1432" width="120" height="60" as="geometry" />
        </mxCell>
        <mxCell id="BfH7uIpekhjpMc50vlzP-193" style="edgeStyle=none;curved=1;rounded=0;orthogonalLoop=1;jettySize=auto;html=1;entryX=0.611;entryY=0.009;entryDx=0;entryDy=0;entryPerimeter=0;fontSize=12;startSize=8;endSize=8;" parent="1" source="BfH7uIpekhjpMc50vlzP-139" target="BfH7uIpekhjpMc50vlzP-147" edge="1">
          <mxGeometry relative="1" as="geometry" />
        </mxCell>
        <mxCell id="BfH7uIpekhjpMc50vlzP-194" value="iya" style="edgeLabel;html=1;align=center;verticalAlign=middle;resizable=0;points=[];fontSize=12;" parent="BfH7uIpekhjpMc50vlzP-193" vertex="1" connectable="0">
          <mxGeometry x="-0.0146" relative="1" as="geometry">
            <mxPoint as="offset" />
          </mxGeometry>
        </mxCell>
        <mxCell id="BfH7uIpekhjpMc50vlzP-195" style="edgeStyle=orthogonalEdgeStyle;rounded=0;orthogonalLoop=1;jettySize=auto;html=1;entryX=0;entryY=0;entryDx=0;entryDy=0;fontSize=12;startSize=8;endSize=8;" parent="1" source="BfH7uIpekhjpMc50vlzP-188" target="BfH7uIpekhjpMc50vlzP-147" edge="1">
          <mxGeometry relative="1" as="geometry">
            <Array as="points">
              <mxPoint x="3482" y="1378" />
              <mxPoint x="4158" y="1378" />
              <mxPoint x="4158" y="1501" />
              <mxPoint x="4195" y="1501" />
            </Array>
          </mxGeometry>
        </mxCell>
        <mxCell id="BfH7uIpekhjpMc50vlzP-198" style="edgeStyle=orthogonalEdgeStyle;rounded=0;orthogonalLoop=1;jettySize=auto;html=1;entryX=0.17;entryY=-0.011;entryDx=0;entryDy=0;fontSize=12;startSize=8;endSize=8;entryPerimeter=0;" parent="1" source="BfH7uIpekhjpMc50vlzP-196" target="BfH7uIpekhjpMc50vlzP-188" edge="1">
          <mxGeometry relative="1" as="geometry">
            <Array as="points">
              <mxPoint x="3443" y="1330" />
              <mxPoint x="3443" y="1421" />
            </Array>
          </mxGeometry>
        </mxCell>
        <mxCell id="BfH7uIpekhjpMc50vlzP-196" value="pesan" style="rounded=1;whiteSpace=wrap;html=1;" parent="1" vertex="1">
          <mxGeometry x="3752" y="1300" width="120" height="60" as="geometry" />
        </mxCell>
        <mxCell id="BfH7uIpekhjpMc50vlzP-205" style="edgeStyle=none;curved=1;rounded=0;orthogonalLoop=1;jettySize=auto;html=1;entryX=0;entryY=0.5;entryDx=0;entryDy=0;fontSize=12;startSize=8;endSize=8;" parent="1" source="BfH7uIpekhjpMc50vlzP-199" target="BfH7uIpekhjpMc50vlzP-203" edge="1">
          <mxGeometry relative="1" as="geometry" />
        </mxCell>
        <mxCell id="BfH7uIpekhjpMc50vlzP-231" style="edgeStyle=none;curved=1;rounded=0;orthogonalLoop=1;jettySize=auto;html=1;entryX=1;entryY=0;entryDx=0;entryDy=0;fontSize=12;startSize=8;endSize=8;" parent="1" source="BfH7uIpekhjpMc50vlzP-199" target="BfH7uIpekhjpMc50vlzP-147" edge="1">
          <mxGeometry relative="1" as="geometry" />
        </mxCell>
        <mxCell id="BfH7uIpekhjpMc50vlzP-199" value="manage users" style="rounded=1;whiteSpace=wrap;html=1;" parent="1" vertex="1">
          <mxGeometry x="4677" y="1348" width="120" height="60" as="geometry" />
        </mxCell>
        <mxCell id="BfH7uIpekhjpMc50vlzP-209" style="edgeStyle=none;curved=1;rounded=0;orthogonalLoop=1;jettySize=auto;html=1;fontSize=12;startSize=8;endSize=8;" parent="1" source="BfH7uIpekhjpMc50vlzP-202" target="BfH7uIpekhjpMc50vlzP-208" edge="1">
          <mxGeometry relative="1" as="geometry" />
        </mxCell>
        <mxCell id="BfH7uIpekhjpMc50vlzP-202" value="reset pasword" style="rounded=1;whiteSpace=wrap;html=1;" parent="1" vertex="1">
          <mxGeometry x="4826" y="1220" width="120" height="60" as="geometry" />
        </mxCell>
        <mxCell id="BfH7uIpekhjpMc50vlzP-203" value="deleted" style="rounded=1;whiteSpace=wrap;html=1;" parent="1" vertex="1">
          <mxGeometry x="4826" y="1298" width="120" height="60" as="geometry" />
        </mxCell>
        <mxCell id="BfH7uIpekhjpMc50vlzP-216" style="edgeStyle=none;curved=1;rounded=0;orthogonalLoop=1;jettySize=auto;html=1;fontSize=12;startSize=8;endSize=8;exitX=1.012;exitY=0.385;exitDx=0;exitDy=0;exitPerimeter=0;" parent="1" source="BfH7uIpekhjpMc50vlzP-204" edge="1">
          <mxGeometry relative="1" as="geometry">
            <mxPoint x="5067.703660753038" y="1143.31" as="targetPoint" />
            <mxPoint x="4965" y="1125.0042891877588" as="sourcePoint" />
          </mxGeometry>
        </mxCell>
        <mxCell id="BfH7uIpekhjpMc50vlzP-204" value="update role" style="rounded=1;whiteSpace=wrap;html=1;" parent="1" vertex="1">
          <mxGeometry x="4836" y="1115" width="120" height="60" as="geometry" />
        </mxCell>
        <mxCell id="BfH7uIpekhjpMc50vlzP-206" style="edgeStyle=none;curved=1;rounded=0;orthogonalLoop=1;jettySize=auto;html=1;entryX=0.033;entryY=0.471;entryDx=0;entryDy=0;entryPerimeter=0;fontSize=12;startSize=8;endSize=8;" parent="1" source="BfH7uIpekhjpMc50vlzP-199" target="BfH7uIpekhjpMc50vlzP-202" edge="1">
          <mxGeometry relative="1" as="geometry" />
        </mxCell>
        <mxCell id="BfH7uIpekhjpMc50vlzP-207" style="edgeStyle=none;curved=1;rounded=0;orthogonalLoop=1;jettySize=auto;html=1;entryX=0.009;entryY=0.391;entryDx=0;entryDy=0;entryPerimeter=0;fontSize=12;startSize=8;endSize=8;" parent="1" source="BfH7uIpekhjpMc50vlzP-199" target="BfH7uIpekhjpMc50vlzP-204" edge="1">
          <mxGeometry relative="1" as="geometry" />
        </mxCell>
        <mxCell id="BfH7uIpekhjpMc50vlzP-211" style="edgeStyle=none;curved=1;rounded=0;orthogonalLoop=1;jettySize=auto;html=1;entryX=0.5;entryY=0;entryDx=0;entryDy=0;fontSize=12;startSize=8;endSize=8;exitX=1;exitY=0;exitDx=0;exitDy=0;" parent="1" source="BfH7uIpekhjpMc50vlzP-208" target="BfH7uIpekhjpMc50vlzP-210" edge="1">
          <mxGeometry relative="1" as="geometry" />
        </mxCell>
        <mxCell id="BfH7uIpekhjpMc50vlzP-208" value="masukan pasword baru" style="shape=parallelogram;perimeter=parallelogramPerimeter;whiteSpace=wrap;html=1;fixedSize=1;" parent="1" vertex="1">
          <mxGeometry x="5043" y="1220" width="120" height="60" as="geometry" />
        </mxCell>
        <mxCell id="BfH7uIpekhjpMc50vlzP-219" value="iya" style="edgeStyle=none;curved=1;rounded=0;orthogonalLoop=1;jettySize=auto;html=1;entryX=0;entryY=0.5;entryDx=0;entryDy=0;fontSize=12;startSize=8;endSize=8;" parent="1" source="BfH7uIpekhjpMc50vlzP-210" target="BfH7uIpekhjpMc50vlzP-218" edge="1">
          <mxGeometry relative="1" as="geometry" />
        </mxCell>
        <mxCell id="BfH7uIpekhjpMc50vlzP-210" value="proses" style="rhombus;whiteSpace=wrap;html=1;" parent="1" vertex="1">
          <mxGeometry x="5255" y="1210" width="80" height="80" as="geometry" />
        </mxCell>
        <mxCell id="BfH7uIpekhjpMc50vlzP-212" style="edgeStyle=none;curved=1;rounded=0;orthogonalLoop=1;jettySize=auto;html=1;entryX=0.847;entryY=1.018;entryDx=0;entryDy=0;entryPerimeter=0;fontSize=12;startSize=8;endSize=8;exitX=0.5;exitY=1;exitDx=0;exitDy=0;" parent="1" source="BfH7uIpekhjpMc50vlzP-210" target="BfH7uIpekhjpMc50vlzP-208" edge="1">
          <mxGeometry relative="1" as="geometry" />
        </mxCell>
        <mxCell id="BfH7uIpekhjpMc50vlzP-213" value="tidak" style="edgeLabel;html=1;align=center;verticalAlign=middle;resizable=0;points=[];fontSize=12;" parent="BfH7uIpekhjpMc50vlzP-212" vertex="1" connectable="0">
          <mxGeometry x="-0.0125" y="1" relative="1" as="geometry">
            <mxPoint as="offset" />
          </mxGeometry>
        </mxCell>
        <mxCell id="BfH7uIpekhjpMc50vlzP-215" style="edgeStyle=orthogonalEdgeStyle;rounded=0;orthogonalLoop=1;jettySize=auto;html=1;entryX=0.991;entryY=0.376;entryDx=0;entryDy=0;entryPerimeter=0;fontSize=12;startSize=8;endSize=8;exitX=0.511;exitY=1.059;exitDx=0;exitDy=0;exitPerimeter=0;" parent="1" source="BfH7uIpekhjpMc50vlzP-203" target="BfH7uIpekhjpMc50vlzP-199" edge="1">
          <mxGeometry relative="1" as="geometry">
            <Array as="points">
              <mxPoint x="4887" y="1371" />
              <mxPoint x="4806" y="1371" />
            </Array>
          </mxGeometry>
        </mxCell>
        <mxCell id="BfH7uIpekhjpMc50vlzP-222" style="edgeStyle=none;curved=1;rounded=0;orthogonalLoop=1;jettySize=auto;html=1;entryX=0.5;entryY=0;entryDx=0;entryDy=0;fontSize=12;startSize=8;endSize=8;exitX=1;exitY=0;exitDx=0;exitDy=0;" parent="1" source="BfH7uIpekhjpMc50vlzP-217" target="BfH7uIpekhjpMc50vlzP-221" edge="1">
          <mxGeometry relative="1" as="geometry" />
        </mxCell>
        <mxCell id="BfH7uIpekhjpMc50vlzP-217" value="masukan role" style="shape=parallelogram;perimeter=parallelogramPerimeter;whiteSpace=wrap;html=1;fixedSize=1;" parent="1" vertex="1">
          <mxGeometry x="5056" y="1115" width="120" height="61" as="geometry" />
        </mxCell>
        <mxCell id="BfH7uIpekhjpMc50vlzP-218" value="pasword berhasil di rubah" style="shape=parallelogram;perimeter=parallelogramPerimeter;whiteSpace=wrap;html=1;fixedSize=1;" parent="1" vertex="1">
          <mxGeometry x="5397" y="1220" width="120" height="60" as="geometry" />
        </mxCell>
        <mxCell id="BfH7uIpekhjpMc50vlzP-220" style="edgeStyle=orthogonalEdgeStyle;rounded=0;orthogonalLoop=1;jettySize=auto;html=1;entryX=0.997;entryY=0.577;entryDx=0;entryDy=0;entryPerimeter=0;fontSize=12;startSize=8;endSize=8;" parent="1" edge="1">
          <mxGeometry relative="1" as="geometry">
            <mxPoint x="5457.367194244604" y="1282" as="sourcePoint" />
            <mxPoint x="4796.999999999999" y="1384.6200000000001" as="targetPoint" />
            <Array as="points">
              <mxPoint x="5457" y="1384" />
              <mxPoint x="4802" y="1384" />
            </Array>
          </mxGeometry>
        </mxCell>
        <mxCell id="BfH7uIpekhjpMc50vlzP-227" style="edgeStyle=none;curved=1;rounded=0;orthogonalLoop=1;jettySize=auto;html=1;entryX=0;entryY=0.5;entryDx=0;entryDy=0;fontSize=12;startSize=8;endSize=8;" parent="1" source="BfH7uIpekhjpMc50vlzP-221" target="BfH7uIpekhjpMc50vlzP-226" edge="1">
          <mxGeometry relative="1" as="geometry" />
        </mxCell>
        <mxCell id="BfH7uIpekhjpMc50vlzP-229" value="iya" style="edgeLabel;html=1;align=center;verticalAlign=middle;resizable=0;points=[];fontSize=12;" parent="BfH7uIpekhjpMc50vlzP-227" vertex="1" connectable="0">
          <mxGeometry x="-0.4177" y="-1" relative="1" as="geometry">
            <mxPoint as="offset" />
          </mxGeometry>
        </mxCell>
        <mxCell id="BfH7uIpekhjpMc50vlzP-221" value="prses" style="rhombus;whiteSpace=wrap;html=1;" parent="1" vertex="1">
          <mxGeometry x="5255" y="1105" width="80" height="80" as="geometry" />
        </mxCell>
        <mxCell id="BfH7uIpekhjpMc50vlzP-223" style="edgeStyle=none;curved=1;rounded=0;orthogonalLoop=1;jettySize=auto;html=1;entryX=0.845;entryY=0.988;entryDx=0;entryDy=0;entryPerimeter=0;fontSize=12;startSize=8;endSize=8;exitX=0.5;exitY=1;exitDx=0;exitDy=0;" parent="1" source="BfH7uIpekhjpMc50vlzP-221" target="BfH7uIpekhjpMc50vlzP-217" edge="1">
          <mxGeometry relative="1" as="geometry" />
        </mxCell>
        <mxCell id="BfH7uIpekhjpMc50vlzP-224" value="tidak" style="edgeLabel;html=1;align=center;verticalAlign=middle;resizable=0;points=[];fontSize=12;" parent="BfH7uIpekhjpMc50vlzP-223" vertex="1" connectable="0">
          <mxGeometry x="-0.26" y="2" relative="1" as="geometry">
            <mxPoint as="offset" />
          </mxGeometry>
        </mxCell>
        <mxCell id="BfH7uIpekhjpMc50vlzP-230" style="edgeStyle=orthogonalEdgeStyle;rounded=0;orthogonalLoop=1;jettySize=auto;html=1;entryX=1.009;entryY=0.923;entryDx=0;entryDy=0;fontSize=12;startSize=8;endSize=8;entryPerimeter=0;" parent="1" source="BfH7uIpekhjpMc50vlzP-226" target="BfH7uIpekhjpMc50vlzP-199" edge="1">
          <mxGeometry relative="1" as="geometry">
            <Array as="points">
              <mxPoint x="5555" y="1145" />
              <mxPoint x="5555" y="1403" />
            </Array>
          </mxGeometry>
        </mxCell>
        <mxCell id="BfH7uIpekhjpMc50vlzP-226" value="role berhasil di&amp;nbsp;&lt;div&gt;rubah&lt;/div&gt;" style="shape=parallelogram;perimeter=parallelogramPerimeter;whiteSpace=wrap;html=1;fixedSize=1;" parent="1" vertex="1">
          <mxGeometry x="5422" y="1115" width="120" height="60" as="geometry" />
        </mxCell>
        <mxCell id="BfH7uIpekhjpMc50vlzP-232" style="edgeStyle=orthogonalEdgeStyle;rounded=0;orthogonalLoop=1;jettySize=auto;html=1;entryX=0.621;entryY=-0.045;entryDx=0;entryDy=0;entryPerimeter=0;fontSize=12;startSize=8;endSize=8;" parent="1" source="BfH7uIpekhjpMc50vlzP-132" target="BfH7uIpekhjpMc50vlzP-116" edge="1">
          <mxGeometry relative="1" as="geometry" />
        </mxCell>
        <mxCell id="Abavzd4_NOO6L6tr1U0k-1" value="diskon" style="rhombus;whiteSpace=wrap;html=1;" vertex="1" parent="1">
          <mxGeometry x="4597" y="2402" width="80" height="80" as="geometry" />
        </mxCell>
        <mxCell id="Abavzd4_NOO6L6tr1U0k-2" value="metode&amp;nbsp;&lt;div&gt;pembayaran&lt;/div&gt;" style="shape=parallelogram;perimeter=parallelogramPerimeter;whiteSpace=wrap;html=1;fixedSize=1;" vertex="1" parent="1">
          <mxGeometry x="5024" y="2412" width="120" height="60" as="geometry" />
        </mxCell>
        <mxCell id="Abavzd4_NOO6L6tr1U0k-3" value="makanan&lt;div&gt;&amp;nbsp;di pesan&lt;/div&gt;" style="shape=parallelogram;perimeter=parallelogramPerimeter;whiteSpace=wrap;html=1;fixedSize=1;" vertex="1" parent="1">
          <mxGeometry x="5176" y="2297" width="120" height="60" as="geometry" />
        </mxCell>
        <mxCell id="Abavzd4_NOO6L6tr1U0k-4" style="edgeStyle=none;curved=1;rounded=0;orthogonalLoop=1;jettySize=auto;html=1;entryX=0.333;entryY=0.006;entryDx=0;entryDy=0;entryPerimeter=0;fontSize=12;startSize=8;endSize=8;" edge="1" parent="1" source="Abavzd4_NOO6L6tr1U0k-3" target="BfH7uIpekhjpMc50vlzP-110">
          <mxGeometry relative="1" as="geometry" />
        </mxCell>
        <mxCell id="Abavzd4_NOO6L6tr1U0k-6" value="proses&amp;nbsp;&lt;div&gt;chekout&lt;/div&gt;" style="rhombus;whiteSpace=wrap;html=1;" vertex="1" parent="1">
          <mxGeometry x="5029" y="2277" width="80" height="80" as="geometry" />
        </mxCell>
        <mxCell id="Abavzd4_NOO6L6tr1U0k-8" style="edgeStyle=none;curved=1;rounded=0;orthogonalLoop=1;jettySize=auto;html=1;entryX=0.072;entryY=0.333;entryDx=0;entryDy=0;entryPerimeter=0;fontSize=12;startSize=8;endSize=8;" edge="1" parent="1" source="Abavzd4_NOO6L6tr1U0k-6" target="Abavzd4_NOO6L6tr1U0k-3">
          <mxGeometry relative="1" as="geometry" />
        </mxCell>
        <mxCell id="Abavzd4_NOO6L6tr1U0k-9" value="yes" style="edgeLabel;html=1;align=center;verticalAlign=middle;resizable=0;points=[];fontSize=12;" vertex="1" connectable="0" parent="Abavzd4_NOO6L6tr1U0k-8">
          <mxGeometry x="0.1018" y="3" relative="1" as="geometry">
            <mxPoint as="offset" />
          </mxGeometry>
        </mxCell>
      </root>
    </mxGraphModel>
  </diagram>
</mxfile>
